<?xml version="1.0" standalone="no"?><!DOCTYPE svg PUBLIC "-//W3C//DTD SVG 1.1//EN" "http://www.w3.org/Graphics/SVG/1.1/DTD/svg11.dtd"><svg t="1683731290326" class="icon" viewBox="0 0 1024 1024" version="1.1" xmlns="http://www.w3.org/2000/svg" p-id="1105" xmlns:xlink="http://www.w3.org/1999/xlink" width="128" height="128"><path d="M149.76 0C104.96 0 66.56 35.2 66.56 80V940.8c0 48 38.4 83.2 83.2 83.2h732.8c44.8 0 80-35.2 80-80V323.2L658.56 0H149.76z" fill="#49B384" p-id="1106"></path><path d="M962.56 326.4v16h-204.8s-99.2-19.2-96-105.6c0 0 3.2 89.6 96 89.6h204.8z" fill="#0D6B42" p-id="1107"></path><path d="M376.48384 609.28c8.3968 0 16.50688 0.82944 24.33024 2.49344 7.91552 1.67936 15.81056 4.79232 23.7056 9.33376a100.09088 100.09088 0 0 1 11.6224 7.94624c3.46624 2.76992 6.31296 5.46304 8.52992 8.08448 2.33472 2.7648 3.8656 5.49376 4.54144 8.20224 0.7424 2.9696 0.34816 5.71392-1.12128 7.9104a19.05664 19.05664 0 0 1-3.6352 4.47488 12.3392 12.3392 0 0 1-5.94432 3.072c-2.19136 0.4608-4.52096 0.39936-6.97344-0.1536-2.28864-0.52224-4.50048-1.7664-6.60992-3.66592l-0.90112-0.85504c-4.49536-4.31104-8.74496-7.8592-12.73856-10.64448a66.1504 66.1504 0 0 0-11.72992-6.62528 49.5616 49.5616 0 0 0-11.58656-3.40992 78.62784 78.62784 0 0 0-12.63616-0.9728c-9.1136 0-17.62304 2.2272-25.5488 6.69696a70.6304 70.6304 0 0 0-20.89984 17.99168c-5.9392 7.51616-10.62912 16.1536-14.06976 25.92768a91.2128 91.2128 0 0 0-5.16096 30.54592c0 10.99264 1.72032 21.41184 5.16096 31.26784 3.43552 9.84576 8.20736 18.41664 14.31552 25.72288a69.7088 69.7088 0 0 0 21.71392 17.4336c8.33024 4.3008 17.43872 6.4512 27.35616 6.4512 10.12736 0 18.62144-1.78176 25.4976-5.30944 6.912-3.54304 12.52352-8.29952 16.87552-14.2848 4.39296-6.0416 7.6032-12.95872 9.6256-20.77696 1.59232-6.15424 2.56512-12.50816 2.9184-19.06688l0.11776-3.10784h-43.0336l-1.14176-0.02048c-9.51296-0.3072-14.85312-4.62848-14.85312-12.57472 0-8.4992 5.34016-13.11744 14.9504-13.44l1.08544-0.01536h51.9424l1.32608 0.0256c6.0928 0.20992 10.5984 1.8944 13.35296 5.1968 2.8672 3.44576 4.17792 9.40544 4.17792 17.98144 0 11.49952-1.46432 22.67136-4.38784 33.49504-2.95424 10.93632-7.74144 20.6592-14.3616 29.14816-6.64576 8.52992-15.2576 15.41632-25.82528 20.64896-10.60352 5.25312-23.46496 7.86432-38.5536 7.86432-14.70464 0-27.9808-2.80064-39.808-8.41728a93.99296 93.99296 0 0 1-30.34624-22.69184c-8.44288-9.5232-14.91968-20.6592-19.42016-33.38752-4.49536-12.70272-6.74304-26.28096-6.74304-40.70912 0-14.03904 2.19648-27.55584 6.58432-40.52992 4.4032-13.0048 10.72128-24.46336 18.95424-34.36544a94.5664 94.5664 0 0 1 29.9008-23.8592c11.74528-6.02624 24.90368-9.03168 39.44448-9.03168z m141.23008 2.8672c4.3776 0 7.82336 0.9728 10.26048 3.0464 2.35008 1.9968 3.5584 5.04832 3.74272 9.01632l0.0256 1.10592v180.69504l-0.0256 0.98816c-0.384 8.064-5.376 12.40576-14.0032 12.40576-8.33024 0-13.0816-4.31616-13.43488-12.20608l-0.02048-0.96256v-180.97664l0.0256-0.96768c0.36352-7.87456 5.15072-12.14464 13.42976-12.14464z m176.54784 3.15392l1.0752 0.02048c8.66304 0.33792 13.47584 4.8384 13.47584 12.86144 0 4.57216-1.30048 7.98208-4.08064 9.96864-2.26304 1.61792-5.40672 2.45248-9.43616 2.60096l-1.37216 0.0256h-77.43488v59.38688l69.74464 0.00512 1.17248 0.0256c6.43072 0.26112 10.69056 2.75456 12.00128 7.20896 1.28 2.80576 1.152 5.9392-0.128 8.82688-1.37216 5.7088-5.60128 8.8064-12.0576 9.10336l-1.03936 0.0256h-69.69344v81.23904l-0.03584 1.13664c-0.2048 3.31776-1.28 6.0672-3.24608 8.1408-2.29376 2.42688-6.00064 3.52768-11.0336 3.52768-4.88448 0-8.448-1.1264-10.55744-3.6352-1.7408-2.06336-2.67776-4.75136-2.8672-8.00256l-0.03072-1.24416v-176.37888l0.02048-1.20832c0.16896-4.77184 1.3312-8.2688 3.69664-10.3936 2.28864-2.06848 5.88288-3.07712 10.7776-3.2256l1.2544-0.01536h89.79456zM658.56 0L962.56 326.4h-208c-80 0-96-64-96-92.8V0z" fill="#FFFFFF" p-id="1108"></path></svg>