<?xml version="1.0" standalone="no"?><!DOCTYPE svg PUBLIC "-//W3C//DTD SVG 1.1//EN" "http://www.w3.org/Graphics/SVG/1.1/DTD/svg11.dtd"><svg t="1683731255857" class="icon" viewBox="0 0 1024 1024" version="1.1" xmlns="http://www.w3.org/2000/svg" p-id="958" xmlns:xlink="http://www.w3.org/1999/xlink" width="128" height="128"><path d="M149.76 0C104.96 0 66.56 35.2 66.56 80V940.8c0 48 38.4 83.2 83.2 83.2h732.8c44.8 0 80-35.2 80-80V323.2L658.56 0H149.76z" fill="#497CB3" p-id="959"></path><path d="M962.56 326.4v16h-204.8s-99.2-19.2-96-105.6c0 0 3.2 89.6 96 89.6h204.8z" fill="#0D3A6B" p-id="960"></path><path d="M418.03776 649.23648c5.21216 0 9.69728 1.664 13.33248 4.9664 3.34848 3.0464 5.57056 7.4752 6.7072 13.23008l0.26624 1.46432 25.81504 168.38656 0.18944 1.54112c0.37376 3.72736 0.1536 7.21408-0.68096 10.4448-1.19296 4.6336-5.34016 6.99392-11.79648 7.22432-4.18304 0-7.424-1.31072-9.49248-4.0192-1.66912-2.19136-2.8672-5.49376-3.69664-9.984l-0.24064-1.3824-16.62464-114.36544-2.1504-13.4656a137.84576 137.84576 0 0 0-2.81088-13.64992 35.2 35.2 0 0 0-1.1264-3.54304l-0.2816-0.68096-0.20992-0.4608-0.34816 0.9728-0.16384 0.50176-42.96192 147.88096-0.34304 1.21344c-0.99328 3.35872-2.23232 5.9136-3.7888 7.68-1.97632 2.23744-4.92032 3.3024-8.65792 3.3024-3.8912 0-6.85056-0.9216-8.7552-2.96448-1.5104-1.61792-2.78528-4.2496-3.93216-7.92576l-0.37888-1.26976a9728.4608 9728.4608 0 0 0-21.92384-73.37984 3444.64384 3444.64384 0 0 1-21.37088-73.42592 27.1104 27.1104 0 0 0-1.28512-3.61472l-0.26624-0.53248-0.1024 0.28672a18.59072 18.59072 0 0 0-0.50688 1.90976l-0.1536 0.768-0.1536 0.83968-21.43232 144.83456c-0.6656 4.0448-1.8176 7.30624-3.49696 9.76896-2.16576 3.19488-5.98016 4.70528-11.14624 4.70528-8.78592 0-12.544-5.95456-11.02848-16.17408l0.18432-1.11104 26.3168-172.04736c0.95232-5.53984 2.9696-9.86112 6.11328-12.9024 3.46112-3.3536 7.97696-5.02272 13.39392-5.02272 5.3248 0 9.856 1.41824 13.48096 4.2752 3.3536 2.64192 5.98016 6.9632 7.9872 12.96896l0.49152 1.536 38.2208 134.85056 37.4272-135.168 0.42496-1.41824c1.83296-5.8368 4.39296-10.112 7.76192-12.76928 3.61984-2.85184 8.05376-4.2752 13.19424-4.2752z m133.632 3.15392l2.31424 0.02048c21.02272 0.33792 36.81792 5.3504 47.29856 15.15008 10.9056 10.19904 16.29184 26.112 16.29184 47.60064 0 41.71776-21.63712 63.2832-64.01536 63.90272l-1.90976 0.01536h-36.43392v63.45216l-0.03584 1.2544c-0.19968 3.59424-1.23392 6.5536-3.15904 8.8064-2.2784 2.65216-5.85216 3.90144-10.5472 3.90144-4.92544 0-8.63232-1.37728-10.9056-4.28032-1.85344-2.37056-2.87744-5.2224-3.08736-8.4992l-0.03584-1.24928v-173.78816l0.02048-1.28512c0.15872-5.4784 1.34656-9.3696 3.83488-11.61728 2.44736-2.21696 6.91712-3.24608 13.58336-3.36896l1.46432-0.01536h45.32224z m189.78816-3.44064c4.64896 0 8.20736 1.6896 10.3424 5.0688 1.8176 2.8928 2.70336 7.71584 2.816 14.6176l0.01024 1.5104v115.28192h10.71104l0.8704 0.03072c6.35392 0.43008 9.63584 5.0944 9.63584 12.8512 0 7.8336-3.36384 12.48256-9.73824 12.85632l-0.84992 0.0256h-10.62912v33.03936l-0.02048 1.06496c-0.1536 3.92192-1.14176 6.784-3.22048 8.4736-2.10432 1.71008-5.56544 2.43712-10.50112 2.43712-4.79744 0-8.2432-0.86016-10.35264-2.8416-1.93536-1.8176-2.9184-4.54144-3.07712-8.0896l-0.0256-1.09056v-32.99328h-77.7728l-1.1264-0.0256c-7.3472-0.32768-12.032-3.8656-13.39904-10.48576-0.4352-3.0464-0.11776-6.53824 0.9216-10.47552 0.93696-3.57376 2.93376-7.79776 5.97504-12.71808l0.94208-1.49504 62.208-96.31744 1.23392-1.96096c5.01248-7.81312 9.79968-13.824 14.3872-18.05312 4.70016-4.32128 10.73152-7.65952 18.0736-10.0352l1.8688-0.57344 0.7168-0.1024z m-14.0288 40.95488l-60.18048 95.52384h60.18048v-95.52384z m-175.77984-12.32384h-36.43392v76.88192h36.43392c14.08 0 23.92576-3.13344 29.67552-9.23136 5.79584-6.144 8.76544-16.04096 8.76544-29.78304 0-13.6704-3.29728-23.296-9.7536-29.056-6.22592-5.5552-15.13472-8.50944-26.81856-8.79104l-1.8688-0.02048zM658.56 0L962.56 326.4h-208c-80 0-96-64-96-92.8V0z" fill="#FFFFFF" p-id="961"></path></svg>