<?xml version="1.0" standalone="no"?><!DOCTYPE svg PUBLIC "-//W3C//DTD SVG 1.1//EN" "http://www.w3.org/Graphics/SVG/1.1/DTD/svg11.dtd"><svg t="1683731311557" class="icon" viewBox="0 0 1024 1024" version="1.1" xmlns="http://www.w3.org/2000/svg" p-id="1548" xmlns:xlink="http://www.w3.org/1999/xlink" width="128" height="128"><path d="M146.56 0C104.96 0 66.56 35.2 66.56 80V940.8C66.56 985.6 101.76 1024 146.56 1024H879.36c44.8 0 80-35.2 80-80V323.2L658.56 0h-512z" fill="#8E4C9E" p-id="1549"></path><path d="M962.56 326.4v16h-204.8s-99.2-19.2-99.2-108.8c0 0 3.2 92.8 96 92.8H962.56z" fill="#713985" p-id="1550"></path><path d="M658.56 0v233.6c0 25.6 16 92.8 96 92.8H962.56L658.56 0zM456.96 729.6c0 6.4-3.2 12.8-6.4 16s-86.4 70.4-188.8 112h-6.4c-3.2 0-6.4 0-9.6-3.2-6.4-3.2-9.6-6.4-9.6-16 0 0-6.4-54.4-6.4-112s6.4-108.8 6.4-112c3.2-6.4 3.2-12.8 9.6-16 3.2 0 6.4-3.2 9.6-3.2s6.4 0 6.4 3.2C367.36 640 450.56 710.4 450.56 710.4c3.2 6.4 6.4 12.8 6.4 19.2z" fill="#FFFFFF" p-id="1551"></path></svg>