<?xml version="1.0" standalone="no"?><!DOCTYPE svg PUBLIC "-//W3C//DTD SVG 1.1//EN" "http://www.w3.org/Graphics/SVG/1.1/DTD/svg11.dtd"><svg t="1683731297318" class="icon" viewBox="0 0 1024 1024" version="1.1" xmlns="http://www.w3.org/2000/svg" p-id="1252" xmlns:xlink="http://www.w3.org/1999/xlink" width="128" height="128"><path d="M141.66016 0C96.1536 0 62.01856 39.82336 62.01856 79.64672v859.01824c0 45.5168 34.13504 85.33504 79.6416 85.33504h728.18176c45.51168 0 79.6416-34.13504 79.6416-79.64672V324.27008L647.97184 0H141.66016z" fill="#F4B900" p-id="1253"></path><path d="M960.86016 324.26496v17.07008h-204.8s-102.4-22.7584-96.70656-108.08832c0 0 5.6832 91.01824 96.70656 91.01824h204.8z" fill="#D4A100" p-id="1254"></path><path d="M659.3536 0v233.24672c0 22.75328 17.06496 91.01824 96.70656 91.01824h204.8L659.3536 0z" fill="#FFFFFF" p-id="1255"></path><path d="M300.9536 5.68832h91.01824V96.7168H300.9536V5.6832zM204.2368 91.02336h91.02336v91.02336H204.24192V91.02336z m96.7168 96.71168h91.01824v91.01824H300.9536V187.73504zM204.2368 278.75328h91.02336v91.02336H204.24192V278.75328z m96.7168 91.02336h91.01824V460.8H300.9536V369.77664z m68.26496 250.3168H232.68352c-11.37664 0-22.75328-11.38176-22.75328-22.7584V460.8h187.72992v136.53504c-5.6832 17.06496-17.06496 22.75328-28.4416 22.75328z" fill="#333333" p-id="1256"></path><path d="M226.9952 512h153.6v56.88832h-153.6z" fill="#FFFFFF" p-id="1257"></path></svg>